<svg width="15" height="11" viewBox="0 0 15 11" fill="currentColor" xmlns="http://www.w3.org/2000/svg">
<path d="M14.25 -0.000195503H0.75C0.546875 -0.000195503 0.371094 0.0710545 0.222656 0.213554C0.0742188 0.356054 0 0.524804 0 0.719805V1.4398C0 1.6348 0.0742188 1.80355 0.222656 1.94605C0.371094 2.08855 0.546875 2.1598 0.75 2.1598H14.25C14.4531 2.1598 14.6289 2.08855 14.7773 1.94605C14.9258 1.80355 15 1.6348 15 1.4398V0.719805C15 0.524804 14.9258 0.356054 14.7773 0.213554C14.6289 0.0710545 14.4531 -0.000195503 14.25 -0.000195503ZM14.25 4.3198H0.75C0.546875 4.3198 0.371094 4.39105 0.222656 4.53355C0.0742188 4.67605 0 4.8448 0 5.0398V5.7598C0 5.9548 0.0742188 6.12355 0.222656 6.26605C0.371094 6.40855 0.546875 6.4798 0.75 6.4798H14.25C14.4531 6.4798 14.6289 6.40855 14.7773 6.26605C14.9258 6.12355 15 5.9548 15 5.7598V5.0398C15 4.8448 14.9258 4.67605 14.7773 4.53355C14.6289 4.39105 14.4531 4.3198 14.25 4.3198ZM14.25 8.6398H0.75C0.546875 8.6398 0.371094 8.71105 0.222656 8.85355C0.0742188 8.99605 0 9.1648 0 9.3598V10.0798C0 10.2748 0.0742188 10.4436 0.222656 10.5861C0.371094 10.7286 0.546875 10.7998 0.75 10.7998H14.25C14.4531 10.7998 14.6289 10.7286 14.7773 10.5861C14.9258 10.4436 15 10.2748 15 10.0798V9.3598C15 9.1648 14.9258 8.99605 14.7773 8.85355C14.6289 8.71105 14.4531 8.6398 14.25 8.6398Z"/>
</svg>
