<svg width="78" height="24" viewBox="0 0 78 24" fill="none" xmlns="http://www.w3.org/2000/svg">
<g clip-path="url(#clip0_674_115)">
<path d="M19.6709 15.8198L18.6683 15.3798C18.4678 15.2998 18.2472 15.3798 18.167 15.5798C17.0442 18.5598 14.9989 21.1798 11.2292 21.1798C6.17629 21.1798 3.70997 16.0998 3.70997 11.0798C3.70997 7.01981 5.67501 3.6398 9.58503 3.6398C12.7131 3.6398 14.4375 5.65981 15.6406 8.5798C15.7609 8.83981 15.9413 8.9598 16.202 8.9598H17.1043C17.3449 8.9598 17.5053 8.7798 17.5053 8.5598L17.4452 2.6998C17.4452 2.4998 17.3249 2.3798 17.1244 2.3798H16.5028C15.9413 2.3798 15.9413 2.6998 15.2997 2.6998C14.5979 2.6998 12.4925 1.7998 9.68529 1.7998C3.62976 1.7998 0.0205078 7.3598 0.0205078 12.8198C0.0205078 18.7798 3.85033 23.9998 10.5274 23.9998C15.6807 23.9998 18.7285 20.4598 19.8313 16.3198C19.8915 16.1398 19.8313 15.9198 19.6709 15.8198Z" fill="white"/>
<path d="M28.2734 22.0202C26.7495 21.7802 26.188 21.2402 26.188 19.6602L26.2081 1.62023C26.2081 1.42023 26.0878 1.28023 25.8471 1.24023H25.3459C25.1052 1.24023 24.9649 1.30023 24.7844 1.48023C23.5813 2.56023 22.6991 3.18023 20.8142 3.96023C20.6137 4.04023 20.5135 4.20023 20.5135 4.42023V5.00023C20.5135 5.24023 20.6338 5.34023 20.8944 5.40023C21.897 5.58023 22.6189 6.24023 22.6189 7.32023L22.6389 19.6402C22.6389 21.2202 22.0173 21.7802 20.5135 22.0002C20.2528 22.0202 20.1325 22.2002 20.1525 22.4402L20.2127 23.0602C20.2327 23.2602 20.3932 23.4202 20.6137 23.4202H28.1129C28.3536 23.4202 28.4939 23.2802 28.514 23.0602L28.5741 22.4402C28.6543 22.2202 28.534 22.0402 28.2734 22.0202Z" fill="white"/>
<path d="M41.8478 19.2402L41.4468 18.9402C41.2062 18.8002 40.9856 18.8802 40.8252 19.0602C39.983 20.0802 38.6597 20.7602 37.3363 20.7802C35.0504 20.8402 33.5666 19.5602 32.945 17.6202L40.5044 14.7802C40.6848 14.7202 40.8052 14.5802 40.8052 14.3402V13.9402C40.8052 13.7602 40.7851 13.5802 40.745 13.4802C40.2838 11.6202 38.9003 9.68018 36.0329 9.68018C32.163 9.68018 29.4561 12.8002 29.4561 16.8202C29.4561 20.5802 32.1429 23.8802 36.1332 23.8602C39.2612 23.8402 41.1861 21.7002 41.9882 19.8002C42.0684 19.6202 42.0283 19.3802 41.8478 19.2402ZM35.2509 11.4202C36.7748 11.4202 37.5368 12.6802 37.2761 14.1402L32.7645 16.1802C32.0828 13.7602 32.9851 11.4202 35.2509 11.4202Z" fill="white"/>
<path d="M52.8958 10.2C51.3117 10.2 49.086 12.04 47.7426 14.46C48.2438 12.3 48.5647 11.74 49.3667 9.88C49.4469 9.68 49.3066 9.5 49.106 9.5C48.9256 9.5 48.7852 9.56 48.5446 9.74C47.0006 10.94 45.4366 11.2 43.5518 11.86C43.3513 11.94 43.251 12.1 43.251 12.3V12.92C43.251 13.16 43.3713 13.26 43.632 13.32C44.6346 13.5 45.3364 14.16 45.3364 15.24L45.3564 19.64C45.3564 21.22 44.9153 21.78 43.3914 22C43.1307 22.02 43.0104 22.2 43.0305 22.44L43.0906 23.06C43.1107 23.26 43.2711 23.42 43.4916 23.42H50.9508C51.1914 23.42 51.3318 23.28 51.3518 23.06L51.412 22.44C51.432 22.2 51.3318 22.04 51.051 22C49.5271 21.76 48.7451 21.32 48.7451 19.64V15.4C49.3868 13.88 50.2089 13.58 50.9307 13.58C51.5724 13.58 52.0135 14.02 52.214 14.6C52.2742 14.78 52.5148 14.86 52.6752 14.74L53.9986 13.74C54.4999 13.36 54.8207 12.8 54.8207 12.08C54.8809 10.9 54.0587 10.2 52.8958 10.2Z" fill="white"/>
<path d="M64.1654 22.02C62.6415 21.78 62.0801 21.24 62.0801 19.66L62.1001 9.74C62.1001 9.6 61.9798 9.5 61.8395 9.5C61.659 9.5 61.5387 9.58 61.3783 9.74C59.9546 10.86 58.6513 11.7 56.7664 12.4C56.5659 12.48 56.4657 12.64 56.4657 12.86V13.3C56.4657 13.54 56.586 13.64 56.8467 13.7C57.8492 13.88 58.6312 14.52 58.6312 15.6L58.6513 19.66C58.6513 21.24 57.9495 21.8 56.4256 22.02C56.1649 22.04 56.0446 22.22 56.0646 22.46L56.1248 23.08C56.1449 23.28 56.3053 23.44 56.5258 23.44H64.0251C64.2657 23.44 64.406 23.3 64.4261 23.08L64.4862 22.46C64.5464 22.22 64.4261 22.04 64.1654 22.02Z" fill="white"/>
<path d="M77.8196 19.3202L77.4186 19.0202C77.178 18.8802 76.9574 18.9602 76.797 19.1402C75.9549 20.1602 74.7518 20.7202 73.4284 20.7202C70.3004 20.7202 68.5358 18.2602 68.5358 14.9202C68.5358 13.0202 69.4983 11.5402 71.0824 11.5402C72.7466 11.5402 73.3682 12.8602 73.8294 14.4602C73.8896 14.6602 74.0299 14.7602 74.2104 14.7602H74.5112C74.7518 14.7602 74.9122 14.6802 75.0726 14.5602L76.0752 13.7802C77.0777 13.0002 76.8371 11.6802 75.8746 10.9002C74.9924 10.1202 73.6489 9.7002 72.2453 9.7002C68.2952 9.7002 65.3477 12.5602 65.3477 16.8202C65.3477 20.7002 68.0345 23.8802 72.105 23.8802C75.233 23.8802 77.1579 21.8002 77.96 19.9202C78.0201 19.7002 77.98 19.4802 77.8196 19.3202Z" fill="white"/>
<path d="M56.5457 4.2L58.4105 4.94C58.8115 5.1 59.1323 5.42 59.2927 5.82L60.0346 7.68C60.1349 7.92 60.4758 7.92 60.576 7.68L61.3179 5.82C61.4783 5.42 61.7992 5.1 62.2002 4.94L64.065 4.2C64.3056 4.1 64.3056 3.76 64.065 3.66L62.2002 2.92C61.7992 2.76 61.4783 2.44 61.3179 2.04L60.576 0.18C60.4758 -0.06 60.1349 -0.06 60.0346 0.18L59.2927 2.04C59.1323 2.44 58.8115 2.76 58.4105 2.92L56.5457 3.66C56.3051 3.76 56.3051 4.1 56.5457 4.2Z" fill="white"/>
</g>
<defs>
<clipPath id="clip0_674_115">
<rect width="78" height="24" fill="white"/>
</clipPath>
</defs>
</svg>
