<svg width="29" height="33" viewBox="0 0 29 33" fill="currentColor" xmlns="http://www.w3.org/2000/svg">
<path d="M29 8.95072C29 8.55382 28.7895 8.1867 28.4469 7.98621L15.0629 0.152927C14.7142 -0.051156 14.2825 -0.0511331 13.9338 0.152986L0.552958 7.9862C0.210469 8.18669 0 8.55378 0 8.95064V24.6439C0 25.0408 0.210482 25.4079 0.552987 25.6084L12.8772 32.8225V26.3413V24.4525C12.8772 22.9919 12.4617 21.5658 11.6885 20.3435C11.256 19.7979 10.7009 19.3559 10.0606 19.0659L5.47645 16.9941C5.30617 16.9181 5.30617 16.673 5.47645 16.597L10.0606 14.5252C11.0823 14.066 11.8895 13.2097 12.322 12.1738L14.3042 7.48119C14.3791 7.30509 14.6243 7.30509 14.6992 7.48119L16.6814 12.1738C17.1139 13.2097 17.9177 14.066 18.9428 14.5252L23.527 16.597C23.6972 16.673 23.6972 16.9181 23.527 16.9941L18.9428 19.0659C18.2957 19.3559 17.7372 19.8083 17.3012 20.3608C16.5349 21.5797 16.1228 22.9988 16.1228 24.4525V32.8191L28.447 25.6049C28.7895 25.4044 29 25.0373 29 24.6405V8.95072Z" />
</svg>
