<svg width="133" height="24" viewBox="0 0 133 24" fill="currentColor" xmlns="http://www.w3.org/2000/svg">
<path d="M103.574 16.3922H100.329C100.215 16.3922 100.135 16.4493 100.101 16.5407C99.6439 17.7515 99.0042 18.7568 98.0904 19.465C97.1766 20.1504 96 20.5616 94.4693 20.5616C92.3788 20.5616 90.6996 19.6478 89.5573 18.1171C88.415 16.575 87.7753 14.4388 87.7753 11.9943C87.7753 9.52689 88.4036 7.39076 89.5573 5.87149C90.6996 4.35221 92.3903 3.43836 94.4693 3.43836C95.9886 3.43836 97.1537 3.83817 98.0676 4.53498C98.9814 5.24322 99.6097 6.24845 100.078 7.42503C100.112 7.51642 100.192 7.58496 100.306 7.58496H103.562C103.608 7.58496 103.676 7.56211 103.711 7.51642C103.756 7.48215 103.779 7.42503 103.779 7.3565V7.29938C103.265 5.10614 102.203 3.30128 100.626 2.04474C99.0499 0.788196 96.9938 0.0571157 94.435 0.0571157C91.465 0.0571157 88.8377 1.27939 86.9529 3.36982C85.068 5.47168 83.9257 8.45312 83.9257 12.0286C83.9257 15.604 85.068 18.5969 86.9529 20.6873C88.8377 22.8006 91.465 24 94.4464 24C97.0052 24 99.0842 23.2918 100.672 22.0238C102.248 20.7673 103.322 18.9396 103.813 16.712V16.6549C103.813 16.5864 103.791 16.5407 103.745 16.4836C103.722 16.4493 103.653 16.4265 103.585 16.4265L103.574 16.3922ZM132.051 6.77392C131.823 6.72822 131.503 6.68253 131.058 6.68253C130.669 6.68253 130.189 6.7168 129.641 6.81961C129.184 6.91099 128.693 7.09376 128.236 7.34507C127.779 7.59638 127.322 7.93908 126.911 8.35031C126.682 8.57877 126.454 8.86435 126.248 9.1842L126.1 9.41266V7.19657C126.1 7.05949 125.986 6.94526 125.871 6.94526H122.764C122.65 6.94526 122.536 7.05949 122.536 7.19657V23.4174C122.536 23.5316 122.65 23.6459 122.764 23.6459H125.894C126.031 23.6459 126.146 23.5316 126.146 23.4174V15.5355C126.146 14.6216 126.26 13.8448 126.454 13.2051C126.66 12.5654 126.968 12.0628 127.368 11.6744C127.791 11.2861 128.259 10.9891 128.807 10.7949C129.447 10.5664 130.144 10.4979 130.749 10.4979C131.206 10.4979 131.663 10.5435 131.926 10.5892H131.96C132.097 10.5892 132.188 10.4979 132.188 10.3608V7.02523C132.223 6.91099 132.143 6.79676 132.017 6.77392H132.051ZM64.7349 0.0342697H64.6777L61.5364 0.582579C61.4222 0.605426 61.3079 0.696811 61.3079 0.811042V23.406C61.3079 23.5431 61.4222 23.6573 61.5707 23.6573H64.7349C64.8491 23.6573 64.9633 23.5431 64.9633 23.406V0.285578C64.9633 0.148501 64.8491 0.0342697 64.7006 0.0342697H64.7349ZM58.258 13.445C57.801 12.5083 57.1613 11.7087 56.3731 11.0462L56.1447 10.8748C55.802 10.6121 55.425 10.3722 55.0252 10.1894L54.911 10.1323L54.9909 10.0524C55.3565 9.6297 55.6763 9.1385 55.9048 8.61304C56.2475 7.84769 56.4188 7.0595 56.4188 6.23703C56.4188 5.34603 56.2361 4.52356 55.8934 3.72394C55.5507 2.92432 55.0595 2.26178 54.4426 1.69062C53.8715 1.16516 53.1861 0.753927 52.4093 0.456925C51.6325 0.159924 50.6616 0 49.5193 0H42.5968C42.4598 0 42.3455 0.114232 42.3455 0.262732V23.3946C42.3455 23.5316 42.4598 23.6459 42.5968 23.6459H51.1413C52.3636 23.6459 53.3803 23.5088 54.2027 23.2346C55.0024 22.9605 55.7449 22.5493 56.3731 22.0352C57.1499 21.3841 57.7896 20.5731 58.258 19.6364C58.3722 19.4079 58.4521 19.2137 58.5321 19.0081L58.5664 18.9167L58.6235 18.7568C58.852 18.0485 58.989 17.306 58.989 16.5293C58.9662 15.4098 58.7263 14.3589 58.2465 13.4222L58.258 13.445ZM46.0352 3.5069H48.9367C49.8505 3.5069 50.5359 3.58686 50.9928 3.73536C51.4269 3.90671 51.7696 4.13517 52.0209 4.42075C52.5121 4.96906 52.7634 5.60876 52.7634 6.36268C52.7634 7.09376 52.535 7.73346 52.0209 8.28177C51.7696 8.56735 51.4498 8.79581 50.9928 8.96716C50.673 9.08139 50.1932 9.14993 49.6221 9.19562H46.0009V3.5069H46.0352ZM54.9452 17.8544C54.7625 18.3113 54.5112 18.6997 54.1913 19.0424C53.8258 19.3851 53.3917 19.6821 52.8548 19.8877C52.3179 20.0819 51.5297 20.1961 50.4788 20.1961H46.0238V12.6911H50.4788C51.5297 12.6911 52.3065 12.8053 52.8434 12.9995C53.3574 13.2051 53.8029 13.4907 54.1571 13.8448C54.4769 14.1875 54.7282 14.5759 54.9224 15.01C55.1166 15.4326 55.208 15.9238 55.208 16.415C55.208 16.9291 55.1166 17.4089 54.9224 17.8544H54.9452ZM79.8477 8.30462C78.6368 7.19657 76.969 6.64826 74.89 6.64826C73.0166 6.64826 71.4859 7.10519 70.3208 8.01904C69.2927 8.78439 68.5502 9.76678 68.1504 10.9319C68.1047 11.0462 68.1847 11.1947 68.3217 11.2175L71.2689 11.7316C71.3831 11.7544 71.4631 11.6973 71.4974 11.6173C72.1028 10.2808 73.2337 9.6297 74.9015 9.6297C76.0438 9.6297 76.9119 9.93812 77.5288 10.5664C78.1456 11.1947 78.4426 12.0286 78.4426 13.0795V13.6735C76.9005 13.2166 75.4269 12.9881 74.0561 12.9881C72.1142 12.9881 70.4921 13.4679 69.2013 14.4503C67.9219 15.4326 67.2594 16.8148 67.2594 18.5854C67.2594 20.2761 67.8648 21.6011 69.0414 22.5607C70.218 23.5202 71.6344 24 73.3022 24C75.4269 24 77.1861 23.3831 78.4655 22.1038V23.3832C78.4655 23.5431 78.6025 23.6687 78.751 23.6687H81.4697C81.6182 23.6687 81.7439 23.5545 81.7439 23.3946V12.851C81.7096 10.9091 81.0928 9.40124 79.8591 8.30462H79.8477ZM77.0833 19.7277C76.1694 20.4931 75.0614 20.8701 73.7363 20.8701C72.7653 20.8701 72.0228 20.6416 71.4974 20.2075C70.9947 19.7734 70.732 19.1794 70.732 18.4255C70.732 17.603 71.0747 16.9862 71.7144 16.575C72.3541 16.1637 73.1994 15.9467 74.2275 15.9467C75.5183 15.9467 76.9348 16.1752 78.454 16.6321C78.454 17.9686 77.9971 18.9852 77.0833 19.7163V19.7277ZM22.3551 0.0342697H22.3094L19.1566 0.582579C19.0424 0.605426 18.9281 0.696811 18.9281 0.811042V23.406C18.9281 23.5431 19.0424 23.6573 19.1909 23.6573H22.3551C22.4693 23.6573 22.5835 23.5431 22.5835 23.406V0.285578C22.5835 0.148501 22.4693 0.0342697 22.3322 0.0342697H22.3551ZM15.8439 13.445C15.387 12.5083 14.7701 11.7087 13.9819 11.0462L13.7534 10.8748C13.4108 10.6121 13.0338 10.3722 12.634 10.1894L12.5197 10.1323L12.5997 10.0524C12.9653 9.6297 13.2851 9.1385 13.5136 8.61304C13.8563 7.84769 14.0276 7.0595 14.0276 6.23703C14.0276 5.34603 13.8563 4.52356 13.5136 3.72394C13.1709 2.92432 12.6797 2.26178 12.0628 1.69062C11.4917 1.16516 10.8063 0.753927 10.0524 0.456925C9.27558 0.159924 8.30462 0 7.1623 0H0.25131C0.114233 0 0 0.114232 0 0.262732V23.3946C0 23.5316 0.114233 23.6459 0.25131 23.6459H8.76154C9.98382 23.6459 11.0005 23.5088 11.8229 23.2346C12.6226 22.9605 13.3651 22.5493 13.9933 22.0352C14.7701 21.3841 15.4098 20.5731 15.8781 19.6364C15.9924 19.4079 16.0723 19.2137 16.1523 19.0081L16.1866 18.9167C16.1866 18.871 16.2094 18.8025 16.2323 18.7568C16.4607 18.0485 16.5978 17.306 16.5978 16.5293C16.575 15.4098 16.3351 14.3589 15.8553 13.4222L15.8439 13.445ZM3.62113 3.5069H6.54545C7.4593 3.5069 8.14469 3.58686 8.60162 3.73536C9.0357 3.90671 9.37839 4.13517 9.6297 4.42075C10.1209 4.96906 10.3722 5.60876 10.3722 6.36268C10.3722 7.09376 10.1437 7.73346 9.6297 8.28177C9.37839 8.56735 9.05854 8.79581 8.60162 8.96716C8.28177 9.08139 7.802 9.14993 7.23084 9.19562H3.62113V3.5069ZM12.5654 17.8544C12.3712 18.3113 12.1085 18.6997 11.8001 19.0424C11.4346 19.3851 11.0005 19.6821 10.4636 19.8877C9.9267 20.0819 9.1385 20.1961 8.08758 20.1961H3.63256V12.6911H8.08758C9.14993 12.6911 9.93812 12.8053 10.4636 12.9995C11.0005 13.2051 11.446 13.4907 11.8001 13.8448C12.1199 14.1875 12.3712 14.5759 12.5654 15.01C12.7596 15.4326 12.851 15.9238 12.851 16.415C12.851 16.9291 12.7368 17.4089 12.554 17.8544H12.5654ZM37.4679 8.30462C36.2456 7.19657 34.5778 6.64826 32.4988 6.64826C30.6368 6.64826 29.1061 7.10519 27.9295 8.01904C26.9015 8.78439 26.1704 9.76678 25.7592 10.9319C25.7249 11.0462 25.8048 11.1947 25.9419 11.2175L28.8777 11.7316C28.9919 11.7544 29.1061 11.6973 29.1404 11.6173C29.7344 10.2808 30.8539 9.6297 32.5331 9.6297C33.6411 9.6297 34.5207 9.93812 35.1375 10.5664C35.7544 11.1947 36.0742 12.0286 36.0742 13.0795V13.6735C34.5093 13.2166 33.0357 12.9881 31.6649 12.9881C29.723 12.9881 28.1009 13.4679 26.8101 14.4503C25.4964 15.4326 24.8682 16.8148 24.8682 18.5854C24.8682 20.2761 25.4393 21.6011 26.6159 22.5607C27.7925 23.5202 29.2089 24 30.8767 24C33.0128 24 34.7606 23.3831 36.0514 22.1038V23.3832C36.0514 23.5431 36.1656 23.6687 36.3141 23.6687H39.0328C39.1928 23.6687 39.3184 23.5545 39.3184 23.3946V12.851C39.2841 10.9091 38.6787 9.40124 37.445 8.30462H37.4679ZM34.6806 19.7277C33.7668 20.4931 32.6245 20.8701 31.3108 20.8701C30.3398 20.8701 29.5973 20.6416 29.0719 20.2075C28.5464 19.7734 28.2722 19.1794 28.2722 18.4255C28.2722 17.603 28.6149 16.9862 29.2661 16.575C29.9172 16.1637 30.7511 15.9467 31.7791 15.9467C33.0814 15.9467 34.4978 16.1752 36.0057 16.6321C36.0285 17.9686 35.5716 18.9852 34.6578 19.7163L34.6806 19.7277ZM118.138 8.30462C116.916 7.19657 115.248 6.64826 113.169 6.64826C111.318 6.64826 109.788 7.10519 108.6 8.01904C107.572 8.78439 106.852 9.76678 106.429 10.9319C106.406 11.0462 106.486 11.1947 106.623 11.2175L109.571 11.7316C109.685 11.7544 109.765 11.6973 109.799 11.6173C110.405 10.2808 111.535 9.6297 113.203 9.6297C114.323 9.6297 115.202 9.93812 115.831 10.5664C116.436 11.1947 116.744 12.0286 116.744 13.0795V13.6735C115.191 13.2166 113.717 12.9881 112.346 12.9881C110.405 12.9881 108.782 13.4679 107.492 14.4503C106.201 15.4326 105.55 16.8148 105.55 18.5854C105.55 20.2761 106.144 21.6011 107.32 22.5607C108.497 23.5202 109.913 24 111.581 24C113.729 24 115.465 23.3831 116.767 22.1038V23.3832C116.767 23.5431 116.881 23.6687 117.041 23.6687H119.76C119.909 23.6687 120.034 23.5545 120.034 23.3946V12.851C119.989 10.9091 119.372 9.40124 118.149 8.30462H118.138ZM115.339 19.7277C114.425 20.4931 113.329 20.8701 112.004 20.8701C111.033 20.8701 110.29 20.6416 109.765 20.2075C109.262 19.7734 108.999 19.1794 108.999 18.4255C108.999 17.603 109.342 16.9862 109.982 16.575C110.633 16.1637 111.467 15.9467 112.495 15.9467C113.797 15.9467 115.237 16.1752 116.722 16.6321C116.722 17.9686 116.265 18.9852 115.351 19.7163L115.339 19.7277Z" />
</svg>
