<svg width="56" height="15" viewBox="0 0 56 15" fill="currentColor" xmlns="http://www.w3.org/2000/svg">
<path d="M17.915 11.1571L18.6145 9.53261C19.3703 10.0967 20.3743 10.39 21.3671 10.39C22.1004 10.39 22.5629 10.108 22.5629 9.67926C22.5516 8.48345 18.1745 9.4198 18.1407 6.41899C18.1294 4.89603 19.4831 3.72278 21.4009 3.72278C22.5403 3.72278 23.6797 4.00481 24.492 4.64784L23.8377 6.30618C23.0931 5.83237 22.1681 5.49393 21.2881 5.49393C20.6902 5.49393 20.2954 5.77596 20.2954 6.13696C20.3067 7.31021 24.7176 6.66718 24.7627 9.53261C24.7627 11.0894 23.4428 12.1837 21.5476 12.1837C20.16 12.1837 18.8852 11.8565 17.915 11.1571Z" />
<path d="M44.753 8.94598C44.4033 9.55517 43.749 9.97258 42.9932 9.97258C41.8763 9.97258 40.9738 9.07008 40.9738 7.95324C40.9738 6.8364 41.8763 5.9339 42.9932 5.9339C43.749 5.9339 44.4033 6.3513 44.753 6.96049L46.6821 5.88877C45.9601 4.60271 44.5725 3.72278 42.9932 3.72278C40.6579 3.72278 38.7627 5.61802 38.7627 7.95324C38.7627 10.2885 40.6579 12.1837 42.9932 12.1837C44.5838 12.1837 45.9601 11.315 46.6821 10.0177L44.753 8.94598Z" />
<path d="M28.1476 0.214355H25.7334V12.0258H28.1476V0.214355Z" />
<path d="M47.6299 0.214355V12.0258H50.0441V8.48349L52.9095 12.0258H56.0006L52.3567 7.8179L55.7298 3.89203H52.7741L50.0441 7.15231V0.214355H47.6299Z" />
<path d="M35.3223 8.96855C34.9726 9.54389 34.2506 9.97258 33.4383 9.97258C32.3215 9.97258 31.419 9.07008 31.419 7.95324C31.419 6.8364 32.3215 5.9339 33.4383 5.9339C34.2506 5.9339 34.9726 6.38515 35.3223 6.97177V8.96855ZM35.3223 3.892V4.8509C34.9275 4.18531 33.946 3.72278 32.9194 3.72278C30.7985 3.72278 29.1289 5.59546 29.1289 7.94196C29.1289 10.2885 30.7985 12.1837 32.9194 12.1837C33.946 12.1837 34.9275 11.7212 35.3223 11.0556V12.0145H37.7365V3.892H35.3223Z" />
<path d="M2.98996 8.95702C2.98996 9.78055 2.32437 10.4461 1.50084 10.4461C0.677311 10.4461 0.0117188 9.78055 0.0117188 8.95702C0.0117188 8.13349 0.677311 7.4679 1.50084 7.4679H2.98996V8.95702Z" />
<path d="M3.73438 8.95714C3.73438 8.13361 4.39997 7.46802 5.2235 7.46802C6.04703 7.46802 6.71262 8.13361 6.71262 8.95714V12.6799C6.71262 13.5035 6.04703 14.1691 5.2235 14.1691C4.39997 14.1691 3.73438 13.5035 3.73438 12.6799V8.95714Z" />
<path d="M5.2235 2.97824C4.39997 2.97824 3.73438 2.31265 3.73438 1.48912C3.73438 0.665593 4.39997 0 5.2235 0C6.04703 0 6.71262 0.665593 6.71262 1.48912V2.97824H5.2235Z" />
<path d="M5.22321 3.73413C6.04674 3.73413 6.71233 4.39972 6.71233 5.22325C6.71233 6.04678 6.04674 6.71237 5.22321 6.71237H1.48912C0.665592 6.71237 0 6.04678 0 5.22325C0 4.39972 0.665592 3.73413 1.48912 3.73413H5.22321Z" />
<path d="M11.1904 5.22325C11.1904 4.39972 11.856 3.73413 12.6796 3.73413C13.5031 3.73413 14.1687 4.39972 14.1687 5.22325C14.1687 6.04678 13.5031 6.71237 12.6796 6.71237H11.1904V5.22325Z" />
<path d="M10.446 5.22321C10.446 6.04674 9.78043 6.71233 8.9569 6.71233C8.13337 6.71233 7.46777 6.04674 7.46777 5.22321V1.48912C7.46777 0.665593 8.13337 0 8.9569 0C9.78043 0 10.446 0.665593 10.446 1.48912V5.22321Z" />
<path d="M8.9569 11.1912C9.78043 11.1912 10.446 11.8568 10.446 12.6803C10.446 13.5038 9.78043 14.1694 8.9569 14.1694C8.13337 14.1694 7.46777 13.5038 7.46777 12.6803V11.1912H8.9569Z" />
<path d="M8.9569 10.4464C8.13337 10.4464 7.46777 9.78079 7.46777 8.95726C7.46777 8.13373 8.13337 7.46814 8.9569 7.46814H12.691C13.5145 7.46814 14.1801 8.13373 14.1801 8.95726C14.1801 9.78079 13.5145 10.4464 12.691 10.4464H8.9569Z" />
</svg>
